<?xml version="1.0" encoding="utf-8"?>
<!-- Generator: Adobe Illustrator 19.0.0, SVG Export Plug-In . SVG Version: 6.00 Build 0)  -->
<svg version="1.1" id="Layer_1" xmlns="http://www.w3.org/2000/svg" xmlns:xlink="http://www.w3.org/1999/xlink" x="0px" y="0px"
	 viewBox="0 0 237.6 241" style="enable-background:new 0 0 237.6 241;" xml:space="preserve">
<style type="text/css">
	.st0{fill:#58595B;}
</style>
<path class="st0" d="M163.7,73.7c-5.9-8.6-17.6-13.7-32.3-14.6v-0.3c4.7-0.8,9.4-2,13-3.2c11.4-3.7,17.7-10.3,17.7-22.7
	c0-20.2-17.2-25.1-35.5-25.1H67.8v0.7c1.2,0.2,3.5,0.5,4.9,0.8c3.7,1.2,6.4,3.2,7.9,8.4c1.3,4.2,1.7,11.1,1.7,18.9v33.7
	c12.7-10.2,25.9-10.9,38.4-9.5c0.4,0,0.8,0.1,1.2,0.2c0.3,0,0.6,0.1,0.8,0.1c13.9,2.3,18.1,11.8,18.5,22.7
	c0.3,9.3-1.6,22.3-4.2,30.8c-0.1,0.2-0.1,0.4-0.2,0.5c-0.1,0.2-0.1,0.3-0.2,0.5c-3.8,9.2-12.1,16.1-23.3,16.1c-3.4,0-6.9-1.2-9-5.3
	c-3.3-5.9-5.1-15.1-5.1-29c0-12.2,1.6-23.2,4.8-27.8c1.9-2.5,5-3.7,7.5-3.7c3.6,0,4.8,3,5.8,11.1c0.8,6.9,3.3,11.2,9.8,11.2
	c4.1,0,8.6-2.7,8.6-8.4c0-3.6-1.2-6.2-4.1-9.2c-3-3.3-10.4-6.4-20-6.4c-18.2,0-35.7,12.5-35.7,34.9c0,11.2,3.4,20.4,9.8,27.1
	c5.3,5.5,13.7,9,25,9c0.9,0,1.8-0.1,2.7-0.2c-0.6,0.1-1,0.2-1,0.2c10.5-0.2,26.9,0.1,37.5-6.5c9.2-5.7,18.2-13.3,19-35.1
	C168.8,93.7,169.3,81.1,163.7,73.7z M117.5,57.8h-8.8V26.1c0-4.7,0.2-7.4,0.7-9.8c1.3-4.5,4.5-6.1,8.8-6.1h2.2
	c10.3,0,16.8,6.2,16.8,22.2c0,5.7-0.8,14.5-4.2,19.2C129.9,55.8,124.9,57.8,117.5,57.8z"/>
<g>
	<g>
		<path class="st0" d="M37.3,167.5c-2-2.9-5.9-4.6-10.8-4.9v-0.1c1.6-0.3,3.2-0.7,4.3-1.1c3.8-1.2,5.9-3.4,5.9-7.6
			c0-6.8-5.7-8.4-11.9-8.4H5.2v0.2c0.4,0.1,1.2,0.2,1.6,0.3c1.2,0.4,2.1,1.1,2.6,2.8c0.5,1.4,0.6,3.7,0.6,6.3v11.3
			c4.2-3.4,8.7-3.7,12.9-3.2c0.1,0,0.3,0,0.4,0.1c0.1,0,0.2,0,0.3,0c4.6,0.8,6,3.9,6.2,7.6c0.1,3.1-0.5,7.5-1.4,10.3
			c0,0.1,0,0.1-0.1,0.2c0,0.1,0,0.1-0.1,0.2c-1.3,3.1-4.1,5.4-7.8,5.4c-1.1,0-2.3-0.4-3-1.8c-1.1-2-1.7-5.1-1.7-9.7
			c0-4.1,0.5-7.8,1.6-9.3c0.6-0.8,1.7-1.3,2.5-1.3c1.2,0,1.6,1,1.9,3.7c0.3,2.3,1.1,3.8,3.3,3.8c1.4,0,2.9-0.9,2.9-2.8
			c0-1.2-0.4-2.1-1.4-3.1c-1-1.1-3.5-2.1-6.7-2.1c-6.1,0-11.9,4.2-11.9,11.7c0,3.8,1.1,6.8,3.3,9.1c1.8,1.8,4.6,3,8.3,3
			c0.3,0,0.6,0,0.9-0.1c-0.2,0-0.3,0.1-0.3,0.1c3.5-0.1,9,0,12.5-2.2c3.1-1.9,6.1-4.5,6.3-11.7C39,174.1,39.2,169.9,37.3,167.5z
			 M21.9,162.1h-2.9v-10.6c0-1.6,0.1-2.5,0.2-3.3c0.5-1.5,1.5-2,2.9-2h0.7c3.4,0,5.6,2.1,5.6,7.4c0,1.9-0.3,4.8-1.4,6.4
			C26,161.4,24.3,162.1,21.9,162.1z"/>
		<g>
			<path class="st0" d="M58.6,187.7c-2,0-3.4-0.4-4.2-1.3c-0.6-0.6-0.9-1.5-1-2.7h-0.1c-0.7,2.9-3.4,4-6.7,4c-3.3,0-6.4-1.9-6.4-6.5
				c0-1.9,0.5-2.8,1.5-3.9c1.4-1.6,4.4-2.1,6.1-2.6c4.5-1.2,5.5-3,5.5-5c0-1.2,0.1-2.9,0.1-3.7c0-2.6-0.6-3.2-2.8-3.2
				c-1.5,0-2,0.4-2.2,1c-0.2,0.6-0.1,2-0.1,3.5c0,2.3-1.1,3.4-3.3,3.4c-2,0-3.3-1-3.3-3c0-1,0.4-1.8,0.9-2.5c1.4-1.9,5-3,8.3-3
				c6.2,0,10.1,2,10.1,7.1v12.2c0,2.5,0.1,3.6,0.6,4.2c0.3,0.4,0.7,0.6,1.4,0.6c0.5,0,1.1-0.2,1.6-0.4v0.3
				C64.1,186.7,61.7,187.7,58.6,187.7z M51.1,174.2c-1.1,0.7-1.6,1.3-2.1,2.4c-0.4,1-0.6,3-0.6,4.8c0,3.1,0.8,4.4,2.4,4.4
				c1.1,0,2.4-1.8,2.4-4.5l0.1-8.8C52.6,173.3,51.9,173.7,51.1,174.2z"/>
			<path class="st0" d="M96.5,187.2V187c0.4,0,0.8-0.1,1.3-0.3c0.8-0.4,1.2-1,1.5-2.4c0.2-0.9,0.2-2.2,0.2-3.5v-12.2
				c0-1.9-0.2-3-0.8-3.6c-0.5-0.6-1.2-0.9-2.1-0.9c-1.7,0-4,1.9-4.4,6.4c-0.1,1-0.2,2.1-0.2,3.3v6.7c0,1.3,0.1,3.1,0.2,4
				c0.2,1.3,0.6,2,1.5,2.4c0.4,0.2,0.8,0.3,1.3,0.3v0.2H81.1V187c0.4,0,0.8-0.1,1.2-0.3c0.9-0.4,1.2-1,1.5-2.4
				c0.2-0.9,0.2-2.2,0.2-3.5v-12.2c0-1.9-0.2-3-0.8-3.6c-0.5-0.6-1.2-0.9-2.1-0.9c-1.7,0-4.2,1.9-4.5,6.4c-0.1,1.4-0.2,2.8-0.2,4.5
				v5.9c0,1.3,0.1,2.6,0.2,3.5c0.2,1.4,0.6,2,1.5,2.4c0.4,0.2,0.8,0.3,1.2,0.3v0.2h-14V187c0.4-0.1,0.9-0.1,1.3-0.2
				c0.8-0.3,1.2-0.7,1.6-2.1c0.2-0.9,0.3-3.2,0.3-4.8v-10.6c0-1.1-0.1-3.1-0.2-4c-0.2-1.1-0.4-1.5-1-1.9c-0.5-0.4-1.2-0.4-1.7-0.4
				v-0.3h10.6c0.2,0,0.3,0.2,0.3,0.4c0,0.5-0.2,4.2-0.2,5.1h0.2c0.6-2.1,1.5-3.4,2.6-4.3c1.4-1.1,3.9-1.7,5.4-1.7
				c2.6,0,4.5,0.7,5.6,1.9c0.8,0.9,1.5,2.4,1.6,4.2h0.1c0.6-2.2,1.6-3.5,2.8-4.4c1.3-1.1,3.5-1.6,5.1-1.6c2.8,0,5.1,0.8,6.1,2.2
				c0.9,1.2,1.5,2.9,1.5,5.6v10c0,1.6,0.1,3.9,0.3,4.8c0.4,1.4,0.9,1.7,1.7,2.1c0.4,0.2,0.9,0.2,1.3,0.2v0.2H96.5z"/>
			<path class="st0" d="M126.1,187.7c-2.7,0-6.3-1-7.9-3.6h-0.1l-4.7,3.1h-0.2c0.2-1.6,0.2-3.5,0.2-4.9v-28.8c0-0.6,0-1.5-0.1-2
				c-0.2-1.1-0.7-1.6-1.3-2c-0.6-0.3-1.2-0.4-1.7-0.4v-0.3h10.9c0.2,0,0.4,0.1,0.4,0.4c0,1.1-0.2,4.2-0.2,6.6v10.8h0.2
				c1-3,3.5-4.5,6.7-4.5c4.8,0,9.8,3.1,9.8,12.8C138,183.8,132.5,187.7,126.1,187.7z M122.6,165.6c-0.9,1.5-1.3,3.6-1.3,6.8v6.2
				c0,2.8,0.4,4.8,1,6.1c0.8,1.7,2.1,2.3,3.2,2.3c3.1,0,4.2-5.4,4.2-12c0-7.7-1.1-11.6-3.8-11.6C124.8,163.4,123.5,164,122.6,165.6z
				"/>
			<path class="st0" d="M138.8,187.2V187c0.4-0.1,0.9-0.1,1.3-0.2c0.8-0.3,1.3-0.7,1.7-2.1c0.2-0.8,0.2-2.8,0.2-4.3v-10.9
				c0-1.1,0-3.3-0.1-4.2c-0.2-1.1-0.5-1.5-1-1.9c-0.5-0.4-1.2-0.4-1.7-0.4v-0.3h10.5c0.2,0,0.3,0.1,0.3,0.4c0,0.9-0.1,2.1-0.1,3.5
				v13.9c0,1.5,0.1,3.5,0.3,4.3c0.4,1.4,0.9,1.7,1.6,2.1c0.4,0.2,0.9,0.2,1.3,0.2v0.2H138.8z M146,158.2c-2.2,0-4.1-1.8-4.1-4
				c0-2.4,1.9-4.2,4.1-4.2s4.2,1.7,4.2,4.2C150.1,156.5,148.2,158.2,146,158.2z"/>
			<path class="st0" d="M170.8,187.2V187c0.4,0,0.8-0.1,1.2-0.3c0.9-0.4,1.3-1,1.5-2.4c0.2-0.9,0.2-2.2,0.2-3.5v-12.2
				c0-1.9-0.1-3-0.7-3.6c-0.4-0.5-1.1-0.8-2.2-0.8c-1.3,0-3.9,1.7-4.3,6.3c-0.1,1.4-0.2,2.8-0.2,4.5v5.9c0,1.3,0,2.6,0.2,3.5
				c0.2,1.4,0.6,2,1.5,2.4c0.4,0.2,0.8,0.3,1.3,0.3v0.2h-14.1V187c0.4-0.1,0.9-0.1,1.3-0.2c0.8-0.3,1.3-0.7,1.7-2.1
				c0.2-0.9,0.2-3.2,0.2-4.8v-10.4c0-1.1,0-3.3-0.1-4.2c-0.2-1.1-0.5-1.5-1-1.9c-0.6-0.4-1.3-0.4-1.8-0.4v-0.3h10.5
				c0.3,0,0.3,0.2,0.3,0.4c0,0.5-0.1,4.3-0.1,5.1h0.1c0.6-2.1,1.7-3.5,2.8-4.3c1.4-1.1,3.8-1.7,5.3-1.7c2.5,0,4.4,0.5,5.6,2.2
				c0.9,1.3,1.5,3.2,1.5,5.9v9.6c0,1.6,0.1,3.9,0.3,4.8c0.3,1.4,0.8,1.7,1.6,2.1c0.4,0.2,0.9,0.2,1.3,0.2v0.2H170.8z"/>
			<path class="st0" d="M197.2,187.7c-6.3,0-12.6-4.7-12.6-12.8c0-8.1,6.3-12.8,12.6-12.8c6.2,0,12.6,4.7,12.6,12.8
				C209.9,183,203.5,187.7,197.2,187.7z M199.8,163.7c-0.7-0.8-1.7-1.1-2.5-1.1c-0.9,0-1.9,0.3-2.6,1.1c-1.3,1.5-1.8,5.2-1.8,11.2
				c0,6,0.6,9.7,1.8,11.2c0.7,0.9,1.7,1.1,2.6,1.1c0.8,0,1.8-0.2,2.5-1.1c1.2-1.5,1.7-5.3,1.7-11.2
				C201.5,168.9,201.1,165.3,199.8,163.7z"/>
			<path class="st0" d="M222.1,187.7c-2.1,0-5.2-0.9-6.8-2.3H215l-2.1,1.7h-0.2l-0.3-9.1h0.4c0.8,4.9,5.2,9.2,9.2,9.2
				c2.6,0,3.5-1,3.5-3.7c0-2.3-2.4-3.6-5.7-5c-3.1-1.2-7.4-3.5-7.4-8.7c0-4.4,3.7-7.7,9.1-7.7c2,0,4.9,1,6,2.1h0.2l1.4-1.6h0.3
				l0.2,7.3h-0.3c-0.4-2-1.4-3.9-2.8-5.2c-1.3-1.3-3-2-4.8-2c-2,0-3.4,1-3.4,3.3c0,2.4,2.2,3.6,5.4,4.9c4.2,1.6,7.7,3.5,7.7,8.4
				C231.4,184.5,227.1,187.7,222.1,187.7z"/>
		</g>
	</g>
	<g>
		<path class="st0" d="M82,231.9c-8.9,0-18.3-5.1-18.3-19.3c0-14.2,9.9-19.2,18.7-19.2c4.8,0,9.2,1.8,10.7,4.2h0.2l1.5-2.9h0.3v13
			h-0.4c-1.9-8.1-5.4-13.3-12.1-13.3c-2.3,0-4.7,0.9-6.2,2.9c-2,2.6-3.2,7.4-3.2,15.3c0,8.6,1.9,12.5,5.2,15.3
			c1.3,1.1,3.5,1.7,6,1.7c4.2,0,8.7-2.8,10.9-10.7l0.8,0.3C94.6,226.5,88.7,231.9,82,231.9z"/>
		<path class="st0" d="M96.2,231.1v-0.2c0.4-0.1,0.9-0.1,1.3-0.2c0.7-0.3,1.2-0.7,1.6-2.1c0.2-0.9,0.3-3.2,0.3-4.8v-24.3
			c0-1-0.1-3.3-0.2-4.2c-0.2-1.1-0.4-1.5-1-1.9c-0.4-0.3-1.2-0.4-1.7-0.4v-0.3h10.6c0.2,0,0.3,0.1,0.3,0.4c0,0.8-0.1,2-0.1,3.5v27.2
			c0,1.6,0,3.9,0.3,4.8c0.3,1.4,0.8,1.7,1.6,2.1c0.4,0.2,1,0.2,1.4,0.2v0.2H96.2z"/>
		<path class="st0" d="M128.4,231.4c-0.1,0-0.2-0.1-0.2-0.1c-0.1-0.2-0.1-0.6-0.1-0.8v-4.5H128c-0.6,2-1.2,3.1-2.4,4.1
			c-1.3,1.1-3.2,1.6-4.8,1.6c-2.2,0-4.3-0.4-5.7-1.8c-1.4-1.4-1.9-3.6-1.9-6l-0.1-10.3c0-1.3-0.1-3.6-0.2-4.4
			c-0.3-1.2-0.6-1.7-1.2-2c-0.5-0.2-1.3-0.3-1.7-0.3v-0.2h10.7c0.2,0,0.4,0.1,0.4,0.4c0,0.4-0.1,3.7-0.1,6.6v11.7
			c0,1.6,0.2,2.9,0.8,3.6c0.5,0.6,1.2,1,2.1,1c1.6,0,3.5-2.3,3.9-6.6c0.2-1.4,0.2-2.3,0.2-4v-6.6c0-1.1,0-2.4-0.1-3.1
			c-0.1-1.2-0.4-1.9-1.1-2.3c-0.5-0.2-1.4-0.3-1.9-0.4v-0.2h10.7c0.3,0,0.4,0.2,0.4,0.4c0,0.4-0.1,3.4-0.1,6.3v11.3
			c0,1,0.1,2.8,0.2,3.7c0.1,1.1,0.4,1.7,1,2.1c0.6,0.3,1.3,0.4,1.9,0.4v0.3C138.7,231.1,128.5,231.4,128.4,231.4z"/>
		<path class="st0" d="M155,231.6c-2.7,0-6.3-1-7.9-3.6H147l-4.7,3.1h-0.2c0.2-1.6,0.2-3.5,0.2-4.9v-28.8c0-0.6,0-1.5-0.1-2
			c-0.2-1.1-0.7-1.6-1.3-2c-0.6-0.3-1.2-0.4-1.7-0.4v-0.3h10.9c0.2,0,0.4,0.1,0.4,0.4c0,1.1-0.2,4.2-0.2,6.6v10.8h0.2
			c1-3,3.5-4.5,6.7-4.5c4.8,0,9.8,3.1,9.8,12.8C166.8,227.7,161.3,231.6,155,231.6z M151.5,209.5c-0.9,1.5-1.3,3.6-1.3,6.8v6.2
			c0,2.8,0.4,4.8,1,6.1c0.8,1.7,2.1,2.3,3.2,2.3c3.1,0,4.2-5.4,4.2-12c0-7.7-1.1-11.6-3.8-11.6C153.7,207.3,152.4,207.9,151.5,209.5
			z"/>
	</g>
</g>
</svg>
